<?xml version="1.0" encoding="utf-8"?>
<!-- Generator: Adobe Illustrator 19.0.0, SVG Export Plug-In . SVG Version: 6.00 Build 0)  -->
<svg version="1.1" id="Capa_1" xmlns="http://www.w3.org/2000/svg" xmlns:xlink="http://www.w3.org/1999/xlink" x="0px" y="0px"
	 viewBox="0 0 841.9 595.3" style="enable-background:new 0 0 841.9 595.3;" xml:space="preserve">
<style type="text/css">
	.st0{fill:#010202;}
	.st1{fill:#D51317;}
</style>
<g id="XMLID_4_">
	<path id="XMLID_1499_" class="st0" d="M272.4,275.5h23.5V425h-23.5V275.5z"/>
	<path id="XMLID_1496_" class="st0" d="M323.7,275.5h37.2c23.5,0,35,13,35,37V388c0,23.9-11.5,37-35,37h-37.2V275.5z M347.2,296.8
		v106.8h13.2c7.5,0,12-3.8,12-14.5v-77.7c0-10.7-4.5-14.5-12-14.5H347.2z"/>
	<path id="XMLID_1494_" class="st1" d="M456.7,296.8h-40.6v-21.4h64.1V425h-64.1v-21.4h40.6v-43.8h-32.3v-21.4h32.3V296.8z"/>
	<path id="XMLID_1492_" class="st0" d="M528.9,338.5h32.3v21.4h-32.3v43.8h40.6V425h-64.1V275.5h64.1v21.4h-40.6V338.5z"/>
</g>
<g id="XMLID_1_">
	<g id="XMLID_57_">
		<path id="XMLID_58_" d="M272.7,473.7v-14h1.3v14H272.7z"/>
		<path id="XMLID_60_" d="M284.7,473.7c-1.4,0-2.4-0.1-3.3-0.1v-14c1.1,0,2.6-0.1,3.9-0.1c4.6,0,7.3,2.2,7.3,7
			C292.6,471.4,289.2,473.7,284.7,473.7z M285.1,460.7c-0.8,0-1.8,0-2.4,0.1v11.8c0.6,0.1,1.5,0.1,2.1,0.1c3.7,0,6.3-1.9,6.3-6
			C291.2,462.6,289.1,460.7,285.1,460.7z"/>
		<path id="XMLID_63_" d="M298.5,473.7v-14h6.9v1.1h-5.6v5.2h5.3v1.1h-5.3v5.6h5.6v1.1H298.5z"/>
		<path id="XMLID_65_" d="M321.1,473.7l-6.2-9.8c-0.6-1-1.2-1.9-1.6-2.8c0.1,1.7,0.1,5.9,0.1,8.5v4.1H312v-14h1.8l6.1,9.7
			c0.6,1,1.2,2,1.7,2.9c-0.1-2-0.1-6.1-0.1-8.8v-3.7h1.3v14H321.1z"/>
		<path id="XMLID_67_" d="M333.9,460.7v12.9h-1.3v-12.9h-4.3v-1.1h10v1.1H333.9z"/>
		<path id="XMLID_69_" d="M343.3,473.7v-14h1.3v14H343.3z"/>
		<path id="XMLID_71_" d="M355.2,473.7c-1.4,0-2.4-0.1-3.3-0.1v-14c1.1,0,2.6-0.1,3.9-0.1c4.6,0,7.3,2.2,7.3,7
			C363.1,471.4,359.8,473.7,355.2,473.7z M355.7,460.7c-0.8,0-1.8,0-2.4,0.1v11.8c0.6,0.1,1.5,0.1,2.1,0.1c3.7,0,6.3-1.9,6.3-6
			C361.7,462.6,359.7,460.7,355.7,460.7z"/>
		<path id="XMLID_74_" d="M377.2,473.7l-1.3-3.6h-6.5l-1.3,3.6h-1.4l5.3-14h1.4l5.3,14H377.2z M373.4,463.1c-0.3-0.7-0.4-1.3-0.6-2
			h0c-0.2,0.7-0.4,1.3-0.6,2l-2.2,6h5.7L373.4,463.1z"/>
		<path id="XMLID_77_" d="M387.3,473.7c-1.4,0-2.4-0.1-3.3-0.1v-14c1.1,0,2.6-0.1,3.9-0.1c4.6,0,7.3,2.2,7.3,7
			C395.2,471.4,391.9,473.7,387.3,473.7z M387.8,460.7c-0.8,0-1.8,0-2.4,0.1v11.8c0.6,0.1,1.5,0.1,2.1,0.1c3.7,0,6.3-1.9,6.3-6
			C393.8,462.6,391.7,460.7,387.8,460.7z"/>
		<path id="XMLID_80_" d="M412,468.6v5.1h-1.3v-5.1l-4.4-8.9h1.5l2.5,5.2c0.4,0.9,0.8,1.7,1.1,2.5h0c0.4-0.9,0.8-1.8,1.2-2.7l2.4-5
			h1.4L412,468.6z"/>
		<path id="XMLID_82_" d="M432.4,473.7c-1.4,0-2.4-0.1-3.3-0.1v-14c1.1,0,2.6-0.1,3.9-0.1c4.6,0,7.3,2.2,7.3,7
			C440.3,471.4,437,473.7,432.4,473.7z M432.9,460.7c-0.8,0-1.8,0-2.4,0.1v11.8c0.6,0.1,1.5,0.1,2.1,0.1c3.7,0,6.3-1.9,6.3-6
			C438.9,462.6,436.9,460.7,432.9,460.7z"/>
		<path id="XMLID_85_" d="M446.3,473.7v-14h6.9v1.1h-5.6v5.2h5.3v1.1h-5.3v5.6h5.6v1.1H446.3z"/>
		<path id="XMLID_87_" d="M462,473.9c-1.1,0-2.1-0.1-2.8-0.4l0.1-1.3c0.8,0.3,1.9,0.5,2.9,0.5c1.9,0,3.5-0.8,3.5-2.8
			c0-3.5-6.7-2.2-6.7-6.6c0-2.2,1.8-3.8,4.8-3.8c0.9,0,1.7,0.1,2.5,0.2l-0.1,1.2c-0.8-0.2-1.7-0.4-2.5-0.4c-2.1,0-3.3,1-3.3,2.6
			c0,3.4,6.7,2.2,6.7,6.6C467,472.1,465.1,473.9,462,473.9z"/>
		<path id="XMLID_89_" d="M481.7,473.7l-1.3-3.6H474l-1.3,3.6h-1.4l5.3-14h1.4l5.3,14H481.7z M477.8,463.1c-0.3-0.7-0.4-1.3-0.6-2h0
			c-0.2,0.7-0.4,1.3-0.6,2l-2.2,6h5.7L477.8,463.1z"/>
		<path id="XMLID_92_" d="M495.3,473.7l-5.4-6.6h-0.1v6.6h-1.3v-14c0.9,0,1.7-0.1,3.1-0.1c2.5,0,4.5,0.9,4.5,3.5s-2.1,3.9-4.8,4
			c0.4,0.5,0.9,1,1.3,1.5l4.4,5.2H495.3z M491.3,460.6c-0.5,0-1,0-1.4,0.1v5.3c0.2,0,0.7,0,1.4,0c2.3,0,3.6-1.1,3.6-2.8
			C494.8,461.3,493.5,460.6,491.3,460.6z"/>
		<path id="XMLID_95_" d="M509.8,473.7l-5.4-6.6h-0.1v6.6H503v-14c0.9,0,1.7-0.1,3.1-0.1c2.5,0,4.5,0.9,4.5,3.5s-2.1,3.9-4.8,4
			c0.4,0.5,0.9,1,1.3,1.5l4.4,5.2H509.8z M505.8,460.6c-0.5,0-1,0-1.4,0.1v5.3c0.2,0,0.7,0,1.4,0c2.3,0,3.6-1.1,3.6-2.8
			C509.3,461.3,508,460.6,505.8,460.6z"/>
		<path id="XMLID_98_" d="M522.2,473.9c-4.2,0-6.2-2.8-6.2-7c0-4.7,3-7.3,6.5-7.3c3.8,0,6.2,2.6,6.2,7.1
			C528.7,471.2,525.8,473.9,522.2,473.9z M522.4,460.6c-2.6,0-4.9,2.1-4.9,5.9c0,3.6,1.6,6.2,4.9,6.2c2.6,0,4.9-2.1,4.9-5.9
			C527.3,462.9,525.4,460.6,522.4,460.6z"/>
		<path id="XMLID_101_" d="M534.6,473.7v-14h1.3v12.9h5.4v1.1H534.6z"/>
		<path id="XMLID_103_" d="M546.4,473.7v-14h1.3v12.9h5.4v1.1H546.4z"/>
		<path id="XMLID_105_" d="M562.6,473.9c-4.2,0-6.2-2.8-6.2-7c0-4.7,3-7.3,6.5-7.3c3.8,0,6.2,2.6,6.2,7.1
			C569.2,471.2,566.2,473.9,562.6,473.9z M562.8,460.6c-2.6,0-4.9,2.1-4.9,5.9c0,3.6,1.6,6.2,4.9,6.2c2.6,0,4.9-2.1,4.9-5.9
			C567.7,462.9,565.9,460.6,562.8,460.6z"/>
	</g>
	<g id="XMLID_56_">
		<path id="XMLID_108_" d="M274.3,492.9c-0.3,0-0.6,0-0.9,0v4.2h-1v-10.3c0.7,0,1.5,0,2.3,0c2.3,0,3.5,1.2,3.5,2.9
			C278.3,491.6,276.5,492.9,274.3,492.9z M274.6,487.5c-0.5,0-0.8,0-1.2,0v4.5c0.3,0,0.7,0.1,1,0.1c1.8,0,2.8-1,2.8-2.4
			C277.3,488.3,276.4,487.5,274.6,487.5z"/>
		<path id="XMLID_111_" d="M287.2,497l-0.9-2.6h-4.7l-1,2.6h-1l3.9-10.3h1.1l3.9,10.3H287.2z M284.4,489.2c-0.2-0.5-0.3-1-0.5-1.5h0
			c-0.1,0.5-0.3,1-0.5,1.4l-1.6,4.4h4.2L284.4,489.2z"/>
		<path id="XMLID_114_" d="M296.5,497l-3.9-4.9h0v4.9h-1v-10.3c0.6,0,1.2,0,2.3,0c1.9,0,3.3,0.6,3.3,2.5c0,1.9-1.5,2.9-3.5,2.9
			c0.3,0.3,0.7,0.7,0.9,1.1l3.2,3.8H296.5z M293.6,487.4c-0.4,0-0.7,0-1.1,0v3.9c0.2,0,0.5,0,1,0c1.7,0,2.6-0.8,2.6-2
			C296.1,487.9,295.2,487.4,293.6,487.4z"/>
		<path id="XMLID_117_" d="M307.5,497l-0.9-2.6h-4.7l-1,2.6h-1l3.9-10.3h1.1l3.9,10.3H307.5z M304.7,489.2c-0.2-0.5-0.3-1-0.5-1.5h0
			c-0.1,0.5-0.3,1-0.5,1.4l-1.6,4.4h4.2L304.7,489.2z"/>
		<path id="XMLID_120_" d="M316.7,497v-10.3h5.1v0.8h-4.1v3.8h3.9v0.8h-3.9v4.1h4.1v0.8H316.7z"/>
		<path id="XMLID_122_" d="M336.2,497l-1-6.7c-0.2-1.3-0.3-2.1-0.3-2.6h0c-0.1,0.4-0.3,0.9-0.5,1.6l-2.6,7.6h-1.2l-2.5-7.2
			c-0.2-0.7-0.5-1.5-0.6-2.1h0c0,0.8-0.2,1.6-0.3,2.7l-0.8,6.6h-1l1.4-10.3h1.3l2.5,7.3c0.3,0.8,0.5,1.4,0.6,2h0
			c0.2-0.7,0.3-1.1,0.5-1.8l2.6-7.4h1.3l1.5,10.3H336.2z"/>
		<path id="XMLID_124_" d="M343.1,492.9c-0.3,0-0.6,0-0.9,0v4.2h-1v-10.3c0.7,0,1.5,0,2.3,0c2.3,0,3.5,1.2,3.5,2.9
			C347,491.6,345.3,492.9,343.1,492.9z M343.3,487.5c-0.5,0-0.8,0-1.2,0v4.5c0.3,0,0.7,0.1,1,0.1c1.8,0,2.8-1,2.8-2.4
			C346,488.3,345.1,487.5,343.3,487.5z"/>
		<path id="XMLID_127_" d="M355.6,497l-3.9-4.9h0v4.9h-1v-10.3c0.6,0,1.2,0,2.3,0c1.9,0,3.3,0.6,3.3,2.5c0,1.9-1.5,2.9-3.5,2.9
			c0.3,0.3,0.7,0.7,0.9,1.1l3.2,3.8H355.6z M352.6,487.4c-0.4,0-0.7,0-1.1,0v3.9c0.2,0,0.5,0,1,0c1.7,0,2.6-0.8,2.6-2
			C355.2,487.9,354.3,487.4,352.6,487.4z"/>
		<path id="XMLID_130_" d="M360.6,497v-10.3h5.1v0.8h-4.1v3.8h3.9v0.8h-3.9v4.1h4.1v0.8H360.6z"/>
		<path id="XMLID_132_" d="M371.5,497.1c-0.8,0-1.5-0.1-2.1-0.3l0.1-1c0.6,0.2,1.4,0.4,2.1,0.4c1.4,0,2.6-0.6,2.6-2.1
			c0-2.5-4.9-1.6-4.9-4.8c0-1.6,1.3-2.8,3.5-2.8c0.7,0,1.2,0.1,1.8,0.2l-0.1,0.9c-0.6-0.2-1.2-0.3-1.9-0.3c-1.6,0-2.4,0.7-2.4,1.9
			c0,2.5,4.9,1.6,4.9,4.8C375.2,495.9,373.8,497.1,371.5,497.1z"/>
		<path id="XMLID_134_" d="M385.3,497l-0.9-2.6h-4.7l-1,2.6h-1l3.9-10.3h1.1l3.9,10.3H385.3z M382.5,489.2c-0.2-0.5-0.3-1-0.5-1.5h0
			c-0.1,0.5-0.3,1-0.5,1.4l-1.6,4.4h4.2L382.5,489.2z"/>
		<path id="XMLID_137_" d="M391.2,497.1c-0.8,0-1.5-0.1-2.1-0.3l0.1-1c0.6,0.2,1.4,0.4,2.1,0.4c1.4,0,2.6-0.6,2.6-2.1
			c0-2.5-4.9-1.6-4.9-4.8c0-1.6,1.3-2.8,3.5-2.8c0.7,0,1.2,0.1,1.8,0.2l-0.1,0.9c-0.6-0.2-1.2-0.3-1.9-0.3c-1.6,0-2.4,0.7-2.4,1.9
			c0,2.5,4.9,1.6,4.9,4.8C394.9,495.9,393.5,497.1,391.2,497.1z"/>
		<path id="XMLID_139_" d="M406.1,493.3v3.7h-1v-3.7l-3.2-6.5h1.1l1.8,3.8c0.3,0.6,0.6,1.2,0.8,1.9h0c0.3-0.7,0.6-1.3,0.9-2l1.8-3.7
			h1L406.1,493.3z"/>
		<path id="XMLID_141_" d="M417.4,497v-10.3h5.1v0.8h-4.1v3.8h3.9v0.8h-3.9v4.1h4.1v0.8H417.4z"/>
		<path id="XMLID_143_" d="M436.9,497l-1-6.7c-0.2-1.3-0.3-2.1-0.3-2.6h0c-0.1,0.4-0.3,0.9-0.5,1.6l-2.6,7.6h-1.2l-2.5-7.2
			c-0.2-0.7-0.5-1.5-0.6-2.1h0c0,0.8-0.2,1.6-0.3,2.7l-0.8,6.6h-1l1.4-10.3h1.3l2.5,7.3c0.3,0.8,0.5,1.4,0.6,2h0
			c0.2-0.7,0.3-1.1,0.5-1.8l2.6-7.4h1.3l1.5,10.3H436.9z"/>
		<path id="XMLID_145_" d="M443.7,492.9c-0.3,0-0.6,0-0.9,0v4.2h-1v-10.3c0.7,0,1.5,0,2.3,0c2.3,0,3.5,1.2,3.5,2.9
			C447.7,491.6,445.9,492.9,443.7,492.9z M444,487.5c-0.5,0-0.8,0-1.2,0v4.5c0.3,0,0.7,0.1,1,0.1c1.8,0,2.8-1,2.8-2.4
			C446.6,488.3,445.8,487.5,444,487.5z"/>
		<path id="XMLID_148_" d="M456.2,497l-3.9-4.9h0v4.9h-1v-10.3c0.6,0,1.2,0,2.3,0c1.9,0,3.3,0.6,3.3,2.5c0,1.9-1.5,2.9-3.5,2.9
			c0.3,0.3,0.7,0.7,0.9,1.1l3.2,3.8H456.2z M453.3,487.4c-0.4,0-0.7,0-1.1,0v3.9c0.2,0,0.5,0,1,0c1.7,0,2.6-0.8,2.6-2
			C455.8,487.9,454.9,487.4,453.3,487.4z"/>
		<path id="XMLID_151_" d="M461.3,497v-10.3h5.1v0.8h-4.1v3.8h3.9v0.8h-3.9v4.1h4.1v0.8H461.3z"/>
		<path id="XMLID_153_" d="M477.2,497l-4.6-7.2c-0.5-0.7-0.9-1.4-1.2-2.1c0,1.2,0.1,4.3,0.1,6.2v3h-1v-10.3h1.3l4.5,7.1
			c0.4,0.7,0.9,1.4,1.3,2.1c0-1.4-0.1-4.5-0.1-6.5v-2.7h1V497H477.2z"/>
		<path id="XMLID_155_" d="M485.6,497c-1,0-1.7-0.1-2.4,0v-10.3c0.8,0,1.9,0,2.9,0c3.4,0,5.3,1.6,5.3,5.1
			C491.4,495.3,489,497,485.6,497z M486,487.5c-0.6,0-1.3,0-1.8,0v8.6c0.5,0.1,1.1,0.1,1.6,0.1c2.7,0,4.6-1.4,4.6-4.4
			C490.4,488.9,488.9,487.5,486,487.5z"/>
		<path id="XMLID_158_" d="M495.2,497v-10.3h1V497H495.2z"/>
		<path id="XMLID_160_" d="M510.8,497l-1-6.7c-0.2-1.3-0.3-2.1-0.3-2.6h0c-0.1,0.4-0.3,0.9-0.5,1.6l-2.6,7.6h-1.2l-2.5-7.2
			c-0.2-0.7-0.5-1.5-0.6-2.1h0c0,0.8-0.2,1.6-0.3,2.7l-0.8,6.6h-1l1.4-10.3h1.3l2.5,7.3c0.3,0.8,0.5,1.4,0.6,2h0
			c0.2-0.7,0.3-1.1,0.5-1.8l2.6-7.4h1.3l1.5,10.3H510.8z"/>
		<path id="XMLID_162_" d="M515.8,497v-10.3h1V497H515.8z"/>
		<path id="XMLID_164_" d="M521.5,497v-10.3h5.1v0.8h-4.1v3.8h3.9v0.8h-3.9v4.1h4.1v0.8H521.5z"/>
		<path id="XMLID_166_" d="M537.4,497l-4.6-7.2c-0.5-0.7-0.9-1.4-1.2-2.1c0,1.2,0.1,4.3,0.1,6.2v3h-1v-10.3h1.3l4.5,7.1
			c0.4,0.7,0.9,1.4,1.3,2.1c0-1.4-0.1-4.5-0.1-6.5v-2.7h1V497H537.4z"/>
		<path id="XMLID_168_" d="M546.1,487.5v9.5h-1v-9.5H542v-0.8h7.3v0.8H546.1z"/>
		<path id="XMLID_170_" d="M555.7,497.1c-3,0-4.5-2.1-4.5-5.2c0-3.5,2.2-5.4,4.8-5.4c2.8,0,4.5,1.9,4.5,5.2
			C560.4,495.2,558.3,497.1,555.7,497.1z M555.8,487.4c-1.9,0-3.6,1.6-3.6,4.3c0,2.7,1.2,4.5,3.6,4.5c1.9,0,3.6-1.6,3.6-4.4
			C559.4,489.1,558.1,487.4,555.8,487.4z"/>
		<path id="XMLID_173_" d="M565.8,497.1c-0.8,0-1.5-0.1-2.1-0.3l0.1-1c0.6,0.2,1.4,0.4,2.1,0.4c1.4,0,2.6-0.6,2.6-2.1
			c0-2.5-4.9-1.6-4.9-4.8c0-1.6,1.3-2.8,3.5-2.8c0.7,0,1.2,0.1,1.8,0.2l-0.1,0.9c-0.6-0.2-1.2-0.3-1.9-0.3c-1.6,0-2.4,0.7-2.4,1.9
			c0,2.5,4.9,1.6,4.9,4.8C569.5,495.9,568.1,497.1,565.8,497.1z"/>
	</g>
</g>
<g id="XMLID_3_">
	<polygon id="XMLID_13_" class="st1" points="474.2,177.8 424.7,165.6 467.6,97.6 	"/>
	<polygon id="XMLID_8_" class="st1" points="424.7,173.7 424.7,228.8 473,185.9 	"/>
	<polygon id="XMLID_10_" class="st1" points="367.7,177.8 417.2,165.6 374.3,97.6 	"/>
	<polygon id="XMLID_9_" class="st1" points="417.2,173.7 417.2,228.8 368.9,185.9 	"/>
</g>
</svg>
