<svg width="308.9" height="412.3" xmlns="http://www.w3.org/2000/svg">
 <style type="text/css">.st0{fill:#010202;}
	.st1{fill:#D51317;}</style>

 <g>
  <title>background</title>
  <rect fill="none" id="canvas_background" height="414.3" width="310.9" y="-1" x="-1"/>
 </g>
 <g>
  <title>Layer 1</title>
  <g id="XMLID_4_">
   <path d="m6.4,181.5l23.5,0l0,149.5l-23.5,0l0,-149.5z" class="st0" id="XMLID_1499_"/>
   <path d="m57.7,181.5l37.2,0c23.5,0 35,13 35,37l0,75.5c0,23.9 -11.5,37 -35,37l-37.2,0l0,-149.5zm23.5,21.3l0,106.8l13.2,0c7.5,0 12,-3.8 12,-14.5l0,-77.7c0,-10.7 -4.5,-14.5 -12,-14.5l-13.2,0l0,-0.1z" class="st0" id="XMLID_1496_"/>
   <path d="m190.7,202.8l-40.6,0l0,-21.4l64.1,0l0,149.6l-64.1,0l0,-21.4l40.6,0l0,-43.8l-32.3,0l0,-21.4l32.3,0l0,-41.6z" class="st1" id="XMLID_1494_"/>
   <path d="m262.9,244.5l32.3,0l0,21.4l-32.3,0l0,43.8l40.6,0l0,21.3l-64.1,0l0,-149.5l64.1,0l0,21.4l-40.6,0l0,41.6z" class="st0" id="XMLID_1492_"/>
  </g>
  <g id="XMLID_1_">
   <g id="XMLID_57_">
    <path d="m6.7,379.7l0,-14l1.3,0l0,14l-1.3,0z" id="XMLID_58_"/>
    <path d="m18.7,379.7c-1.4,0 -2.4,-0.1 -3.3,-0.1l0,-14c1.1,0 2.6,-0.1 3.9,-0.1c4.6,0 7.3,2.2 7.3,7c0,4.9 -3.4,7.2 -7.9,7.2zm0.4,-13c-0.8,0 -1.8,0 -2.4,0.1l0,11.8c0.6,0.1 1.5,0.1 2.1,0.1c3.7,0 6.3,-1.9 6.3,-6c0.1,-4.1 -2,-6 -6,-6z" id="XMLID_60_"/>
    <path d="m32.5,379.7l0,-14l6.9,0l0,1.1l-5.6,0l0,5.2l5.3,0l0,1.1l-5.3,0l0,5.6l5.6,0l0,1.1l-6.9,0l0,-0.1z" id="XMLID_63_"/>
    <path d="m55.1,379.7l-6.2,-9.8c-0.6,-1 -1.2,-1.9 -1.6,-2.8c0.1,1.7 0.1,5.9 0.1,8.5l0,4.1l-1.4,0l0,-14l1.8,0l6.1,9.7c0.6,1 1.2,2 1.7,2.9c-0.1,-2 -0.1,-6.1 -0.1,-8.8l0,-3.7l1.3,0l0,14l-1.7,0l0,-0.1z" id="XMLID_65_"/>
    <path d="m67.9,366.7l0,12.9l-1.3,0l0,-12.9l-4.3,0l0,-1.1l10,0l0,1.1l-4.4,0z" id="XMLID_67_"/>
    <path d="m77.3,379.7l0,-14l1.3,0l0,14l-1.3,0z" id="XMLID_69_"/>
    <path d="m89.2,379.7c-1.4,0 -2.4,-0.1 -3.3,-0.1l0,-14c1.1,0 2.6,-0.1 3.9,-0.1c4.6,0 7.3,2.2 7.3,7c0,4.9 -3.3,7.2 -7.9,7.2zm0.5,-13c-0.8,0 -1.8,0 -2.4,0.1l0,11.8c0.6,0.1 1.5,0.1 2.1,0.1c3.7,0 6.3,-1.9 6.3,-6c0,-4.1 -2,-6 -6,-6z" id="XMLID_71_"/>
    <path d="m111.2,379.7l-1.3,-3.6l-6.5,0l-1.3,3.6l-1.4,0l5.3,-14l1.4,0l5.3,14l-1.5,0zm-3.8,-10.6c-0.3,-0.7 -0.4,-1.3 -0.6,-2l0,0c-0.2,0.7 -0.4,1.3 -0.6,2l-2.2,6l5.7,0l-2.3,-6z" id="XMLID_74_"/>
    <path d="m121.3,379.7c-1.4,0 -2.4,-0.1 -3.3,-0.1l0,-14c1.1,0 2.6,-0.1 3.9,-0.1c4.6,0 7.3,2.2 7.3,7c0,4.9 -3.3,7.2 -7.9,7.2zm0.5,-13c-0.8,0 -1.8,0 -2.4,0.1l0,11.8c0.6,0.1 1.5,0.1 2.1,0.1c3.7,0 6.3,-1.9 6.3,-6c0,-4.1 -2.1,-6 -6,-6z" id="XMLID_77_"/>
    <path d="m146,374.6l0,5.1l-1.3,0l0,-5.1l-4.4,-8.9l1.5,0l2.5,5.2c0.4,0.9 0.8,1.7 1.1,2.5l0,0c0.4,-0.9 0.8,-1.8 1.2,-2.7l2.4,-5l1.4,0l-4.4,8.9z" id="XMLID_80_"/>
    <path d="m166.4,379.7c-1.4,0 -2.4,-0.1 -3.3,-0.1l0,-14c1.1,0 2.6,-0.1 3.9,-0.1c4.6,0 7.3,2.2 7.3,7c0,4.9 -3.3,7.2 -7.9,7.2zm0.5,-13c-0.8,0 -1.8,0 -2.4,0.1l0,11.8c0.6,0.1 1.5,0.1 2.1,0.1c3.7,0 6.3,-1.9 6.3,-6c0,-4.1 -2,-6 -6,-6z" id="XMLID_82_"/>
    <path d="m180.3,379.7l0,-14l6.9,0l0,1.1l-5.6,0l0,5.2l5.3,0l0,1.1l-5.3,0l0,5.6l5.6,0l0,1.1l-6.9,0l0,-0.1z" id="XMLID_85_"/>
    <path d="m196,379.9c-1.1,0 -2.1,-0.1 -2.8,-0.4l0.1,-1.3c0.8,0.3 1.9,0.5 2.9,0.5c1.9,0 3.5,-0.8 3.5,-2.8c0,-3.5 -6.7,-2.2 -6.7,-6.6c0,-2.2 1.8,-3.8 4.8,-3.8c0.9,0 1.7,0.1 2.5,0.2l-0.1,1.2c-0.8,-0.2 -1.7,-0.4 -2.5,-0.4c-2.1,0 -3.3,1 -3.3,2.6c0,3.4 6.7,2.2 6.7,6.6c-0.1,2.4 -2,4.2 -5.1,4.2z" id="XMLID_87_"/>
    <path d="m215.7,379.7l-1.3,-3.6l-6.4,0l-1.3,3.6l-1.4,0l5.3,-14l1.4,0l5.3,14l-1.6,0zm-3.9,-10.6c-0.3,-0.7 -0.4,-1.3 -0.6,-2l0,0c-0.2,0.7 -0.4,1.3 -0.6,2l-2.2,6l5.7,0l-2.3,-6z" id="XMLID_89_"/>
    <path d="m229.3,379.7l-5.4,-6.6l-0.1,0l0,6.6l-1.3,0l0,-14c0.9,0 1.7,-0.1 3.1,-0.1c2.5,0 4.5,0.9 4.5,3.5s-2.1,3.9 -4.8,4c0.4,0.5 0.9,1 1.3,1.5l4.4,5.2l-1.7,0l0,-0.1zm-4,-13.1c-0.5,0 -1,0 -1.4,0.1l0,5.3c0.2,0 0.7,0 1.4,0c2.3,0 3.6,-1.1 3.6,-2.8c-0.1,-1.9 -1.4,-2.6 -3.6,-2.6z" id="XMLID_92_"/>
    <path d="m243.8,379.7l-5.4,-6.6l-0.1,0l0,6.6l-1.3,0l0,-14c0.9,0 1.7,-0.1 3.1,-0.1c2.5,0 4.5,0.9 4.5,3.5s-2.1,3.9 -4.8,4c0.4,0.5 0.9,1 1.3,1.5l4.4,5.2l-1.7,0l0,-0.1zm-4,-13.1c-0.5,0 -1,0 -1.4,0.1l0,5.3c0.2,0 0.7,0 1.4,0c2.3,0 3.6,-1.1 3.6,-2.8c-0.1,-1.9 -1.4,-2.6 -3.6,-2.6z" id="XMLID_95_"/>
    <path d="m256.2,379.9c-4.2,0 -6.2,-2.8 -6.2,-7c0,-4.7 3,-7.3 6.5,-7.3c3.8,0 6.2,2.6 6.2,7.1c0,4.5 -2.9,7.2 -6.5,7.2zm0.2,-13.3c-2.6,0 -4.9,2.1 -4.9,5.9c0,3.6 1.6,6.2 4.9,6.2c2.6,0 4.9,-2.1 4.9,-5.9c0,-3.9 -1.9,-6.2 -4.9,-6.2z" id="XMLID_98_"/>
    <path d="m268.6,379.7l0,-14l1.3,0l0,12.9l5.4,0l0,1.1l-6.7,0z" id="XMLID_101_"/>
    <path d="m280.4,379.7l0,-14l1.3,0l0,12.9l5.4,0l0,1.1l-6.7,0z" id="XMLID_103_"/>
    <path d="m296.6,379.9c-4.2,0 -6.2,-2.8 -6.2,-7c0,-4.7 3,-7.3 6.5,-7.3c3.8,0 6.2,2.6 6.2,7.1c0.1,4.5 -2.9,7.2 -6.5,7.2zm0.2,-13.3c-2.6,0 -4.9,2.1 -4.9,5.9c0,3.6 1.6,6.2 4.9,6.2c2.6,0 4.9,-2.1 4.9,-5.9c0,-3.9 -1.8,-6.2 -4.9,-6.2z" id="XMLID_105_"/>
   </g>
   <g id="XMLID_56_">
    <path d="m8.3,398.9c-0.3,0 -0.6,0 -0.9,0l0,4.2l-1,0l0,-10.3c0.7,0 1.5,0 2.3,0c2.3,0 3.5,1.2 3.5,2.9c0.1,1.9 -1.7,3.2 -3.9,3.2zm0.3,-5.4c-0.5,0 -0.8,0 -1.2,0l0,4.5c0.3,0 0.7,0.1 1,0.1c1.8,0 2.8,-1 2.8,-2.4c0.1,-1.4 -0.8,-2.2 -2.6,-2.2z" id="XMLID_108_"/>
    <path d="m21.2,403l-0.9,-2.6l-4.7,0l-1,2.6l-1,0l3.9,-10.3l1.1,0l3.9,10.3l-1.3,0zm-2.8,-7.8c-0.2,-0.5 -0.3,-1 -0.5,-1.5l0,0c-0.1,0.5 -0.3,1 -0.5,1.4l-1.6,4.4l4.2,0l-1.6,-4.3z" id="XMLID_111_"/>
    <path d="m30.5,403l-3.9,-4.9l0,0l0,4.9l-1,0l0,-10.3c0.6,0 1.2,0 2.3,0c1.9,0 3.3,0.6 3.3,2.5c0,1.9 -1.5,2.9 -3.5,2.9c0.3,0.3 0.7,0.7 0.9,1.1l3.2,3.8l-1.3,0zm-2.9,-9.6c-0.4,0 -0.7,0 -1.1,0l0,3.9c0.2,0 0.5,0 1,0c1.7,0 2.6,-0.8 2.6,-2c0,-1.4 -0.9,-1.9 -2.5,-1.9z" id="XMLID_114_"/>
    <path d="m41.5,403l-0.9,-2.6l-4.7,0l-1,2.6l-1,0l3.9,-10.3l1.1,0l3.9,10.3l-1.3,0zm-2.8,-7.8c-0.2,-0.5 -0.3,-1 -0.5,-1.5l0,0c-0.1,0.5 -0.3,1 -0.5,1.4l-1.6,4.4l4.2,0l-1.6,-4.3z" id="XMLID_117_"/>
    <path d="m50.7,403l0,-10.3l5.1,0l0,0.8l-4.1,0l0,3.8l3.9,0l0,0.8l-3.9,0l0,4.1l4.1,0l0,0.8l-5.1,0z" id="XMLID_120_"/>
    <path d="m70.2,403l-1,-6.7c-0.2,-1.3 -0.3,-2.1 -0.3,-2.6l0,0c-0.1,0.4 -0.3,0.9 -0.5,1.6l-2.6,7.6l-1.2,0l-2.5,-7.2c-0.2,-0.7 -0.5,-1.5 -0.6,-2.1l0,0c0,0.8 -0.2,1.6 -0.3,2.7l-0.8,6.6l-1,0l1.4,-10.3l1.3,0l2.5,7.3c0.3,0.8 0.5,1.4 0.6,2l0,0c0.2,-0.7 0.3,-1.1 0.5,-1.8l2.6,-7.4l1.3,0l1.5,10.3l-0.9,0z" id="XMLID_122_"/>
    <path d="m77.1,398.9c-0.3,0 -0.6,0 -0.9,0l0,4.2l-1,0l0,-10.3c0.7,0 1.5,0 2.3,0c2.3,0 3.5,1.2 3.5,2.9c0,1.9 -1.7,3.2 -3.9,3.2zm0.2,-5.4c-0.5,0 -0.8,0 -1.2,0l0,4.5c0.3,0 0.7,0.1 1,0.1c1.8,0 2.8,-1 2.8,-2.4c0.1,-1.4 -0.8,-2.2 -2.6,-2.2z" id="XMLID_124_"/>
    <path d="m89.6,403l-3.9,-4.9l0,0l0,4.9l-1,0l0,-10.3c0.6,0 1.2,0 2.3,0c1.9,0 3.3,0.6 3.3,2.5c0,1.9 -1.5,2.9 -3.5,2.9c0.3,0.3 0.7,0.7 0.9,1.1l3.2,3.8l-1.3,0zm-3,-9.6c-0.4,0 -0.7,0 -1.1,0l0,3.9c0.2,0 0.5,0 1,0c1.7,0 2.6,-0.8 2.6,-2c0.1,-1.4 -0.8,-1.9 -2.5,-1.9z" id="XMLID_127_"/>
    <path d="m94.6,403l0,-10.3l5.1,0l0,0.8l-4.1,0l0,3.8l3.9,0l0,0.8l-3.9,0l0,4.1l4.1,0l0,0.8l-5.1,0z" id="XMLID_130_"/>
    <path d="m105.5,403.1c-0.8,0 -1.5,-0.1 -2.1,-0.3l0.1,-1c0.6,0.2 1.4,0.4 2.1,0.4c1.4,0 2.6,-0.6 2.6,-2.1c0,-2.5 -4.9,-1.6 -4.9,-4.8c0,-1.6 1.3,-2.8 3.5,-2.8c0.7,0 1.2,0.1 1.8,0.2l-0.1,0.9c-0.6,-0.2 -1.2,-0.3 -1.9,-0.3c-1.6,0 -2.4,0.7 -2.4,1.9c0,2.5 4.9,1.6 4.9,4.8c0.1,1.9 -1.3,3.1 -3.6,3.1z" id="XMLID_132_"/>
    <path d="m119.3,403l-0.9,-2.6l-4.7,0l-1,2.6l-1,0l3.9,-10.3l1.1,0l3.9,10.3l-1.3,0zm-2.8,-7.8c-0.2,-0.5 -0.3,-1 -0.5,-1.5l0,0c-0.1,0.5 -0.3,1 -0.5,1.4l-1.6,4.4l4.2,0l-1.6,-4.3z" id="XMLID_134_"/>
    <path d="m125.2,403.1c-0.8,0 -1.5,-0.1 -2.1,-0.3l0.1,-1c0.6,0.2 1.4,0.4 2.1,0.4c1.4,0 2.6,-0.6 2.6,-2.1c0,-2.5 -4.9,-1.6 -4.9,-4.8c0,-1.6 1.3,-2.8 3.5,-2.8c0.7,0 1.2,0.1 1.8,0.2l-0.1,0.9c-0.6,-0.2 -1.2,-0.3 -1.9,-0.3c-1.6,0 -2.4,0.7 -2.4,1.9c0,2.5 4.9,1.6 4.9,4.8c0.1,1.9 -1.3,3.1 -3.6,3.1z" id="XMLID_137_"/>
    <path d="m140.1,399.3l0,3.7l-1,0l0,-3.7l-3.2,-6.5l1.1,0l1.8,3.8c0.3,0.6 0.6,1.2 0.8,1.9l0,0c0.3,-0.7 0.6,-1.3 0.9,-2l1.8,-3.7l1,0l-3.2,6.5z" id="XMLID_139_"/>
    <path d="m151.4,403l0,-10.3l5.1,0l0,0.8l-4.1,0l0,3.8l3.9,0l0,0.8l-3.9,0l0,4.1l4.1,0l0,0.8l-5.1,0z" id="XMLID_141_"/>
    <path d="m170.9,403l-1,-6.7c-0.2,-1.3 -0.3,-2.1 -0.3,-2.6l0,0c-0.1,0.4 -0.3,0.9 -0.5,1.6l-2.6,7.6l-1.2,0l-2.5,-7.2c-0.2,-0.7 -0.5,-1.5 -0.6,-2.1l0,0c0,0.8 -0.2,1.6 -0.3,2.7l-0.8,6.6l-1,0l1.4,-10.3l1.3,0l2.5,7.3c0.3,0.8 0.5,1.4 0.6,2l0,0c0.2,-0.7 0.3,-1.1 0.5,-1.8l2.6,-7.4l1.3,0l1.5,10.3l-0.9,0z" id="XMLID_143_"/>
    <path d="m177.7,398.9c-0.3,0 -0.6,0 -0.9,0l0,4.2l-1,0l0,-10.3c0.7,0 1.5,0 2.3,0c2.3,0 3.5,1.2 3.5,2.9c0.1,1.9 -1.7,3.2 -3.9,3.2zm0.3,-5.4c-0.5,0 -0.8,0 -1.2,0l0,4.5c0.3,0 0.7,0.1 1,0.1c1.8,0 2.8,-1 2.8,-2.4c0,-1.4 -0.8,-2.2 -2.6,-2.2z" id="XMLID_145_"/>
    <path d="m190.2,403l-3.9,-4.9l0,0l0,4.9l-1,0l0,-10.3c0.6,0 1.2,0 2.3,0c1.9,0 3.3,0.6 3.3,2.5c0,1.9 -1.5,2.9 -3.5,2.9c0.3,0.3 0.7,0.7 0.9,1.1l3.2,3.8l-1.3,0zm-2.9,-9.6c-0.4,0 -0.7,0 -1.1,0l0,3.9c0.2,0 0.5,0 1,0c1.7,0 2.6,-0.8 2.6,-2c0,-1.4 -0.9,-1.9 -2.5,-1.9z" id="XMLID_148_"/>
    <path d="m195.3,403l0,-10.3l5.1,0l0,0.8l-4.1,0l0,3.8l3.9,0l0,0.8l-3.9,0l0,4.1l4.1,0l0,0.8l-5.1,0z" id="XMLID_151_"/>
    <path d="m211.2,403l-4.6,-7.2c-0.5,-0.7 -0.9,-1.4 -1.2,-2.1c0,1.2 0.1,4.3 0.1,6.2l0,3l-1,0l0,-10.3l1.3,0l4.5,7.1c0.4,0.7 0.9,1.4 1.3,2.1c0,-1.4 -0.1,-4.5 -0.1,-6.5l0,-2.7l1,0l0,10.4l-1.3,0z" id="XMLID_153_"/>
    <path d="m219.6,403c-1,0 -1.7,-0.1 -2.4,0l0,-10.3c0.8,0 1.9,0 2.9,0c3.4,0 5.3,1.6 5.3,5.1c0,3.5 -2.4,5.2 -5.8,5.2zm0.4,-9.5c-0.6,0 -1.3,0 -1.8,0l0,8.6c0.5,0.1 1.1,0.1 1.6,0.1c2.7,0 4.6,-1.4 4.6,-4.4c0,-2.9 -1.5,-4.3 -4.4,-4.3z" id="XMLID_155_"/>
    <path d="m229.2,403l0,-10.3l1,0l0,10.3l-1,0z" id="XMLID_158_"/>
    <path d="m244.8,403l-1,-6.7c-0.2,-1.3 -0.3,-2.1 -0.3,-2.6l0,0c-0.1,0.4 -0.3,0.9 -0.5,1.6l-2.6,7.6l-1.2,0l-2.5,-7.2c-0.2,-0.7 -0.5,-1.5 -0.6,-2.1l0,0c0,0.8 -0.2,1.6 -0.3,2.7l-0.8,6.6l-1,0l1.4,-10.3l1.3,0l2.5,7.3c0.3,0.8 0.5,1.4 0.6,2l0,0c0.2,-0.7 0.3,-1.1 0.5,-1.8l2.6,-7.4l1.3,0l1.5,10.3l-0.9,0z" id="XMLID_160_"/>
    <path d="m249.8,403l0,-10.3l1,0l0,10.3l-1,0z" id="XMLID_162_"/>
    <path d="m255.5,403l0,-10.3l5.1,0l0,0.8l-4.1,0l0,3.8l3.9,0l0,0.8l-3.9,0l0,4.1l4.1,0l0,0.8l-5.1,0z" id="XMLID_164_"/>
    <path d="m271.4,403l-4.6,-7.2c-0.5,-0.7 -0.9,-1.4 -1.2,-2.1c0,1.2 0.1,4.3 0.1,6.2l0,3l-1,0l0,-10.3l1.3,0l4.5,7.1c0.4,0.7 0.9,1.4 1.3,2.1c0,-1.4 -0.1,-4.5 -0.1,-6.5l0,-2.7l1,0l0,10.4l-1.3,0z" id="XMLID_166_"/>
    <path d="m280.1,393.5l0,9.5l-1,0l0,-9.5l-3.1,0l0,-0.8l7.3,0l0,0.8l-3.2,0z" id="XMLID_168_"/>
    <path d="m289.7,403.1c-3,0 -4.5,-2.1 -4.5,-5.2c0,-3.5 2.2,-5.4 4.8,-5.4c2.8,0 4.5,1.9 4.5,5.2c-0.1,3.5 -2.2,5.4 -4.8,5.4zm0.1,-9.7c-1.9,0 -3.6,1.6 -3.6,4.3c0,2.7 1.2,4.5 3.6,4.5c1.9,0 3.6,-1.6 3.6,-4.4c0,-2.7 -1.3,-4.4 -3.6,-4.4z" id="XMLID_170_"/>
    <path d="m299.8,403.1c-0.8,0 -1.5,-0.1 -2.1,-0.3l0.1,-1c0.6,0.2 1.4,0.4 2.1,0.4c1.4,0 2.6,-0.6 2.6,-2.1c0,-2.5 -4.9,-1.6 -4.9,-4.8c0,-1.6 1.3,-2.8 3.5,-2.8c0.7,0 1.2,0.1 1.8,0.2l-0.1,0.9c-0.6,-0.2 -1.2,-0.3 -1.9,-0.3c-1.6,0 -2.4,0.7 -2.4,1.9c0,2.5 4.9,1.6 4.9,4.8c0.1,1.9 -1.3,3.1 -3.6,3.1z" id="XMLID_173_"/>
   </g>
  </g>
  <g id="XMLID_3_">
   <polygon points="208.20001220703125,83.80000305175781 158.70001220703125,71.60000610351562 201.60000610351562,3.5999984741210938 " class="st1" id="XMLID_13_"/>
   <polygon points="158.70001220703125,79.69999694824219 158.70001220703125,134.8000030517578 207,91.89999389648438 " class="st1" id="XMLID_8_"/>
   <polygon points="101.70001220703125,83.80000305175781 151.20001220703125,71.60000610351562 108.29998779296875,3.5999984741210938 " class="st1" id="XMLID_10_"/>
   <polygon points="151.20001220703125,79.69999694824219 151.20001220703125,134.8000030517578 102.89999389648438,91.89999389648438 " class="st1" id="XMLID_9_"/>
  </g>
 </g>
</svg>