<?xml version="1.0" standalone="no"?>
<!DOCTYPE svg PUBLIC "-//W3C//DTD SVG 20010904//EN"
 "http://www.w3.org/TR/2001/REC-SVG-20010904/DTD/svg10.dtd">
<svg version="1.0" xmlns="http://www.w3.org/2000/svg"
 width="16.000000pt" height="16.000000pt" viewBox="0 0 16.000000 16.000000"
 preserveAspectRatio="xMidYMid meet">
<metadata>
Created by potrace 1.11, written by Peter Selinger 2001-2013
</metadata>
<g transform="translate(0.000000,16.000000) scale(0.002111,-0.002111)"
fill="#000000" stroke="none">
<path d="M1114 7463 c-1 -16 -5 -68 -9 -118 -4 -49 -9 -108 -10 -130 -5 -77
-15 -200 -20 -245 -2 -24 -7 -78 -10 -120 -3 -41 -8 -97 -10 -125 -2 -27 -7
-86 -11 -130 -3 -44 -8 -98 -10 -120 -2 -22 -6 -71 -8 -110 -3 -38 -6 -70 -6
-70 -1 0 -9 -91 -25 -300 -2 -33 -7 -87 -10 -120 -6 -70 -15 -183 -20 -240 -2
-22 -6 -69 -9 -105 -4 -36 -8 -94 -11 -130 -2 -36 -6 -94 -10 -130 -6 -71 -13
-154 -20 -240 -2 -30 -6 -82 -9 -115 -3 -33 -8 -94 -11 -135 -4 -41 -8 -95
-10 -120 -3 -24 -7 -81 -11 -125 -3 -44 -7 -96 -9 -115 -2 -19 -6 -73 -10
-120 -3 -47 -8 -101 -10 -120 -2 -19 -7 -73 -10 -120 -4 -47 -8 -101 -10 -120
-2 -19 -7 -75 -10 -125 -8 -110 -12 -149 -19 -240 -11 -121 -16 -188 -21 -250
-3 -33 -7 -85 -10 -115 -5 -62 -16 -192 -18 -230 -1 -17 3 -24 13 -23 28 3 74
14 82 19 5 3 21 8 36 10 15 3 45 10 67 16 22 5 47 11 55 13 8 2 89 22 180 45
91 22 176 43 190 46 14 3 33 7 42 10 9 3 25 7 35 9 10 2 47 12 83 20 70 18 90
23 118 29 9 2 85 21 167 41 83 21 157 39 165 40 8 2 15 4 15 5 0 1 11 4 25 6
14 3 43 10 65 16 22 6 47 12 55 14 8 1 24 5 35 8 11 3 49 13 85 21 36 8 72 17
80 19 37 11 147 37 170 42 14 2 50 12 80 20 30 9 66 18 80 20 14 3 33 7 42 10
9 3 25 7 35 9 10 2 110 27 223 55 113 29 216 54 230 57 42 8 55 11 55 13 0 2
22 7 60 15 17 3 39 9 50 12 11 4 27 8 34 9 37 7 151 37 151 40 0 4 -74 122
-87 139 -5 6 -35 53 -67 105 -100 161 -115 185 -126 197 -5 7 -10 15 -10 18 0
3 -20 36 -44 73 -24 37 -88 137 -141 222 -54 85 -112 178 -129 205 -18 28 -45
71 -62 97 -95 151 -138 220 -174 276 -22 34 -40 65 -40 68 0 3 -9 14 -20 26
-10 11 -27 37 -36 57 -9 20 -20 38 -24 41 -6 4 -24 33 -75 118 -6 9 -27 43
-48 75 -20 31 -37 61 -37 66 0 5 -4 11 -8 13 -8 3 -195 294 -224 348 -9 17
-23 39 -32 49 -9 10 -16 21 -16 25 0 4 -5 12 -10 19 -15 17 -90 137 -90 143 0
3 -5 10 -10 17 -12 13 -69 103 -169 262 -34 55 -118 188 -187 295 -68 107
-127 202 -131 210 -3 8 -17 29 -30 46 -13 17 -23 34 -23 38 0 3 -15 28 -32 54
-18 26 -38 57 -45 67 -10 18 -194 308 -233 369 -8 13 -26 42 -39 65 -29 48
-36 51 -37 14z"/>
<path d="M6389 7462 c-17 -27 -72 -114 -254 -402 -54 -85 -105 -167 -114 -181
-9 -15 -72 -115 -141 -223 -69 -108 -132 -207 -140 -221 -30 -48 -230 -364
-312 -493 -20 -31 -51 -81 -70 -111 -18 -30 -41 -66 -50 -80 -10 -14 -27 -42
-38 -61 -11 -19 -56 -91 -100 -158 -44 -68 -80 -126 -80 -130 0 -3 -11 -20
-25 -38 -14 -18 -25 -35 -25 -39 0 -3 -5 -11 -10 -18 -6 -7 -23 -32 -39 -57
-15 -25 -60 -96 -99 -157 -40 -62 -72 -117 -72 -123 0 -5 -3 -10 -8 -10 -4 0
-12 -9 -17 -19 -12 -23 -175 -283 -246 -391 -27 -41 -58 -91 -69 -110 -11 -19
-60 -98 -109 -175 -153 -240 -246 -388 -250 -399 -2 -6 -8 -15 -13 -21 -20
-23 -108 -165 -108 -175 0 -5 -4 -10 -10 -10 -24 0 -7 -19 23 -26 17 -4 34 -8
37 -9 18 -5 77 -16 85 -17 6 0 18 -4 27 -9 10 -5 30 -11 45 -14 15 -2 93 -20
173 -40 153 -38 173 -43 205 -51 11 -2 110 -27 220 -54 110 -28 211 -53 224
-56 13 -3 151 -37 305 -75 155 -39 290 -72 301 -74 11 -2 27 -6 35 -8 8 -2 29
-7 45 -11 38 -9 94 -23 143 -36 20 -6 84 -22 142 -35 95 -23 119 -29 170 -40
8 -2 15 -4 15 -5 0 -1 11 -3 23 -6 13 -2 78 -18 145 -35 67 -17 129 -33 137
-35 8 -2 33 -8 55 -14 22 -6 54 -13 70 -16 17 -3 60 -14 97 -24 71 -19 77 -18
72 15 -2 11 -6 63 -9 115 -4 52 -8 106 -10 120 -2 14 -7 63 -10 110 -3 47 -7
105 -10 130 -3 25 -7 77 -10 115 -3 39 -8 97 -11 130 -3 33 -7 80 -9 105 -7
96 -15 197 -21 250 -3 30 -7 82 -9 115 -2 33 -7 89 -10 125 -11 129 -13 156
-30 370 -2 25 -6 72 -9 105 -3 33 -7 90 -10 128 -4 37 -9 97 -12 135 -3 37 -7
90 -9 117 -2 28 -6 79 -10 115 -4 36 -8 92 -10 125 -2 33 -4 60 -5 60 -1 0 -3
27 -5 60 -3 33 -7 85 -9 115 -3 30 -7 87 -11 125 -3 39 -8 99 -11 135 -3 36
-7 90 -9 120 -3 30 -7 82 -10 115 -3 33 -8 92 -10 130 -2 39 -7 93 -10 120 -5
45 -10 110 -20 235 -2 25 -4 45 -5 45 0 0 -3 32 -5 70 -2 39 -7 95 -9 125 -3
30 -8 91 -12 135 -3 44 -8 96 -9 115 -2 19 -6 69 -9 110 -3 41 -9 100 -12 130
-3 30 -6 74 -8 97 -3 54 -8 58 -27 25z"/>
<path d="M3245 3108 c-249 -64 -489 -125 -525 -133 -8 -2 -15 -4 -15 -5 0 -1
-9 -3 -20 -5 -11 -2 -92 -23 -180 -45 -88 -23 -171 -44 -185 -46 -14 -3 -48
-12 -76 -20 -28 -8 -60 -16 -70 -18 -11 -2 -66 -16 -124 -31 -58 -15 -112 -28
-120 -30 -8 -2 -53 -13 -100 -25 -47 -12 -94 -24 -105 -27 -31 -7 -39 -9 -60
-16 -11 -3 -31 -8 -45 -11 -33 -7 -53 -11 -127 -31 -35 -9 -71 -18 -80 -20
-10 -2 -33 -8 -50 -14 -18 -5 -33 -7 -33 -4 0 3 -7 0 -15 -7 -8 -7 -15 -10
-15 -7 0 3 -15 1 -32 -4 -18 -6 -41 -12 -51 -14 -10 -2 -28 -7 -40 -11 -12 -4
-29 -8 -37 -9 -8 -1 -44 -10 -80 -20 -36 -9 -69 -18 -75 -19 -73 -15 -165 -41
-165 -47 0 -4 12 -17 28 -29 15 -12 62 -54 106 -93 43 -40 90 -81 103 -92 14
-11 40 -33 57 -50 18 -16 64 -57 101 -90 38 -33 79 -69 91 -80 12 -11 50 -45
84 -75 35 -30 75 -66 90 -80 15 -14 55 -50 90 -80 35 -30 73 -64 85 -75 11
-11 52 -47 90 -80 38 -33 76 -67 85 -75 18 -17 155 -139 191 -171 74 -64 144
-126 158 -139 9 -9 54 -49 101 -90 47 -41 92 -82 100 -90 8 -8 49 -44 90 -79
41 -36 80 -69 85 -75 6 -6 46 -42 90 -81 44 -38 87 -76 96 -85 9 -8 44 -40 79
-70 73 -63 73 -64 170 -150 41 -36 84 -74 96 -85 12 -11 52 -47 90 -80 37 -33
72 -64 78 -70 6 -5 45 -39 86 -75 41 -36 89 -78 106 -95 75 -69 96 -86 101
-81 4 4 7 3016 4 3094 -1 18 -11 16 -306 -60z"/>
<path d="M3976 1630 c1 -853 4 -1553 7 -1556 3 -3 22 9 42 28 68 61 81 73 155
138 40 36 78 70 84 75 6 6 47 42 90 80 44 39 87 77 96 85 9 8 49 44 90 80 72
63 253 224 276 245 6 5 44 39 85 75 40 36 87 77 104 92 16 15 52 47 79 70 28
24 62 54 76 68 15 14 60 54 101 90 41 35 76 67 79 70 3 3 41 37 85 75 43 39
87 77 96 85 25 23 154 138 180 161 57 49 158 138 214 189 79 71 187 167 249
222 28 24 94 83 149 131 54 48 113 101 130 116 18 15 59 52 92 81 33 30 62 56
65 59 3 4 29 26 58 50 47 38 65 63 45 60 -5 -1 -10 0 -13 1 -3 1 -12 3 -20 5
-8 1 -35 8 -60 15 -25 7 -53 14 -62 16 -32 7 -50 12 -273 69 -121 31 -231 58
-245 61 -14 2 -32 7 -40 10 -8 3 -24 8 -35 10 -11 2 -65 15 -120 29 -55 14
-111 28 -125 31 -14 2 -32 7 -40 10 -8 4 -49 15 -90 25 -41 10 -95 23 -120 29
-25 7 -55 14 -67 16 -12 2 -35 9 -50 15 -16 6 -29 10 -30 10 -2 -1 -4 -1 -5 0
-2 0 -12 2 -23 4 -11 1 -119 28 -240 59 -269 70 -812 207 -841 212 -12 2 -40
10 -63 18 -22 9 -41 13 -41 11 0 -2 -24 3 -52 11 -29 7 -57 14 -63 14 -7 0
-10 -523 -9 -1550z"/>
</g>
</svg>
